<?xml version="1.0" encoding="UTF-8" standalone="no"?>
<svg
   width="386.75101"
   height="217.79041"
   viewBox="-10 -10 400.751 230.753"
   version="1.1"
   id="svg1"
   xmlns="http://www.w3.org/2000/svg"
   xmlns:svg="http://www.w3.org/2000/svg">
  <defs
     id="defs1">
    <rect
       x="102.57901"
       y="125.1048"
       width="85.251472"
       height="66.884285"
       id="rect3" />
  </defs>
  <g
     id="layer1"
     transform="matrix(3.7795275,0,0,3.7795275,-42.684571,-28.610717)">
    <path
       d="m 37.281111,8.6941982 c -5.818674,0 -10.535324,4.9682838 -10.535324,11.0966168 0,0.476291 0.03028,0.947402 0.08569,1.407889 -0.0834,-0.0022 -0.166313,-0.0066 -0.250213,-0.0066 -4.94581,-3.3e-5 -8.95492,4.222706 -8.95492,9.432011 0,5.209293 4.009438,9.432011 8.95492,9.432011 h 34.732655 c 4.072953,0 7.374839,-3.477807 7.374839,-7.767733 0,-4.289938 -3.301886,-7.767734 -7.374839,-7.767734 -0.01322,0 -0.02645,-7.6e-5 -0.03957,0 0.0098,-0.193725 0.01978,-0.386347 0.01978,-0.582587 0,-6.128332 -4.716991,-11.096616 -10.535334,-11.096616 -1.62388,0 -3.163095,0.390741 -4.536664,1.081919 -1.860878,-3.139496 -5.169202,-5.2291204 -8.941827,-5.2291204 z"
       fill="#ffffff"
       id="path5"
       style="stroke:#000000;stroke-width:3.97092;stroke-dasharray:none;stroke-opacity:1" />
  </g>
  <rect
     width="280.32977"
     height="116.19271"
     x="100.51715"
     y="91.175285"
     ry="9.846839"
     stroke="#000000"
     stroke-width="11.8073"
     fill="none"
     id="rect1"
     style="fill:#ffffff;fill-opacity:1" />
  <text
     xml:space="preserve"
     transform="translate(-1.516671,-9.713691)"
     id="text3"
     style="font-size:53.3333px;line-height:25px;font-family:'Arial Rounded MT Bold';-inkscape-font-specification:'Arial Rounded MT Bold, Normal';font-variant-ligatures:none;letter-spacing:0px;word-spacing:0px;white-space:pre;shape-inside:url(#rect3);display:none;fill:none;stroke:#000000;stroke-width:1px;stroke-linecap:butt;stroke-linejoin:miter;stroke-opacity:1" />
  <path
     id="text4"
     style="font-size:106.775px;line-height:27.8058px;font-family:'Franklin Gothic Demi';-inkscape-font-specification:'Franklin Gothic Demi, Normal';font-variant-ligatures:none;letter-spacing:0px;word-spacing:0px;fill:#228b22;fill-opacity:1;stroke:none;stroke-width:1.112;stroke-dasharray:none"
     d="m 147.40755,156.20427 v 26.70809 h -17.72921 v -67.38731 h 33.03581 q 9.1399,0 14.64587,1.92534 5.56103,1.87599 9.19497,6.96089 3.63394,5.08491 3.63394,11.30528 0,12.14452 -13.04914,17.4269 l 13.87504,29.7689 h -19.43607 l -11.56254,-26.70809 z m 0,-28.6828 v 17.18006 h 10.7917 q 5.28573,0 7.6533,-0.64178 2.42263,-0.69116 4.29466,-2.96208 1.87202,-2.3203 1.87202,-5.28238 0,-2.81398 -1.87202,-5.03554 -1.87203,-2.22156 -4.07442,-2.71524 -2.20239,-0.54304 -8.25896,-0.54304 z m 61.34303,55.75017 v -68 h 20 l 20,25 20,-25 h 20 v 68 h -20 v -39 l -20,25 -20,-25 v 39 z m 125,0 -30,-33 h 20 v -35 h 20 v 35 h 20 z" />
</svg>
